<svg id="bitcoin-logo" xmlns="http://www.w3.org/2000/svg" width="107.319" height="22.409" viewBox="0 0 107.319 22.409">
  <path id="Path_1" data-name="Path 1" d="M22.069,13.918A11.2,11.2,0,1,1,13.909.339a11.2,11.2,0,0,1,8.159,13.579Z" transform="translate(0.002 -0.003)" fill="#f7931a"/>
  <path id="Path_2" data-name="Path 2" d="M26.261,16.858c.223-1.491-.912-2.292-2.464-2.827l.5-2.02-1.229-.306-.49,1.966q-.491-.121-.985-.232l.494-1.979-1.229-.306-.5,2.019c-.268-.061-.53-.121-.785-.185v-.006l-1.7-.423-.327,1.313s.912.209.893.222a.654.654,0,0,1,.573.715l-.574,2.3a1.08,1.08,0,0,1,.128.041l-.13-.032-.8,3.223a.448.448,0,0,1-.564.292c.013.018-.893-.223-.893-.223l-.61,1.408,1.6.4c.3.074.589.152.876.226l-.509,2.043,1.228.306.5-2.021c.335.091.661.175.98.255l-.5,2.012,1.229.306.509-2.039c2.1.4,3.673.237,4.336-1.659a2.157,2.157,0,0,0-1.13-2.982,1.961,1.961,0,0,0,1.57-1.805ZM23.452,20.8c-.38,1.527-2.95.7-3.784.494l.675-2.706C21.176,18.793,23.849,19.2,23.452,20.8Zm.38-3.96c-.347,1.388-2.486.683-3.18.51l.612-2.454c.694.173,2.929.5,2.568,1.944Z" transform="translate(-10.117 -7.25)" fill="#fff"/>
  <path id="Path_3" data-name="Path 3" d="M75.407,6.788a5.346,5.346,0,0,1,2.353.482,4.736,4.736,0,0,1,1.649,1.3,5.5,5.5,0,0,1,.963,1.929,8.81,8.81,0,0,1,.31,2.382,9.7,9.7,0,0,1-2.693,6.737,9.27,9.27,0,0,1-2.95,2.039,9,9,0,0,1-3.684.752c-.171,0-.471,0-.9-.014A13.171,13.171,0,0,1,69,22.274a17.115,17.115,0,0,1-1.745-.342,8.742,8.742,0,0,1-1.745-.623L70.417.693,74.811.012,73.055,7.327a6.831,6.831,0,0,1,1.133-.4,5.051,5.051,0,0,1,1.218-.143ZM71.721,18.928a3.855,3.855,0,0,0,1.871-.482,4.922,4.922,0,0,0,1.519-1.291,6.507,6.507,0,0,0,1.006-1.83,6.23,6.23,0,0,0,.369-2.128,4.189,4.189,0,0,0-.454-2.126,1.783,1.783,0,0,0-1.674-.766,5.246,5.246,0,0,0-1.034.141,2.581,2.581,0,0,0-1.15.6L70.3,18.812c.113.02.213.039.3.057a2.206,2.206,0,0,0,.267.042,3.079,3.079,0,0,0,.342.016h.509Zm13.518,3.092h-4.2L84.586,7.1h4.226ZM87.281,5.287a2.6,2.6,0,0,1-1.588-.524,1.853,1.853,0,0,1-.711-1.6,2.662,2.662,0,0,1,.241-1.119,2.993,2.993,0,0,1,.639-.908,3.14,3.14,0,0,1,.921-.61A2.812,2.812,0,0,1,87.9.3a2.605,2.605,0,0,1,1.587.524,1.871,1.871,0,0,1,.708,1.6,2.649,2.649,0,0,1-.242,1.121,2.952,2.952,0,0,1-.637.908,3.083,3.083,0,0,1-.921.609,2.756,2.756,0,0,1-1.119.226Zm5.209-1.9,4.4-.681L95.806,7.1h4.708l-.85,3.459h-4.68l-1.246,5.217A5.893,5.893,0,0,0,93.54,17a2.222,2.222,0,0,0,.141.979,1.228,1.228,0,0,0,.609.636,2.791,2.791,0,0,0,1.262.229,6.705,6.705,0,0,0,1.32-.128,9.263,9.263,0,0,0,1.289-.354l.314,3.234a15.087,15.087,0,0,1-1.843.537,10.616,10.616,0,0,1-2.354.226,6.523,6.523,0,0,1-3.035-.579,3.37,3.37,0,0,1-1.532-1.59,5.051,5.051,0,0,1-.4-2.31,14.915,14.915,0,0,1,.4-2.751L92.49,3.388Zm7.84,12.675a10.483,10.483,0,0,1,.623-3.631,8.931,8.931,0,0,1,1.788-2.979,8.375,8.375,0,0,1,2.823-2.012,9.013,9.013,0,0,1,3.7-.737,9.779,9.779,0,0,1,2.283.242,9.238,9.238,0,0,1,1.83.637l-1.447,3.291q-.579-.233-1.177-.411a5.116,5.116,0,0,0-1.488-.185,4.16,4.16,0,0,0-3.333,1.445A5.793,5.793,0,0,0,104.7,15.61a4,4,0,0,0,.626,2.339,2.614,2.614,0,0,0,2.3.893,7.364,7.364,0,0,0,1.588-.169,7.824,7.824,0,0,0,1.362-.425l.314,3.374a15.2,15.2,0,0,1-1.758.555,9.764,9.764,0,0,1-2.3.239,7.745,7.745,0,0,1-2.977-.509,5.668,5.668,0,0,1-2.013-1.375,5.186,5.186,0,0,1-1.149-2.029,8.333,8.333,0,0,1-.357-2.438Zm18.645,6.351a6.865,6.865,0,0,1-2.61-.455,4.817,4.817,0,0,1-1.828-1.276,5.508,5.508,0,0,1-1.092-1.942,7.845,7.845,0,0,1-.367-2.479,10.942,10.942,0,0,1,.551-3.405A9.665,9.665,0,0,1,115.261,9.8,8.728,8.728,0,0,1,117.9,7.568a7.252,7.252,0,0,1,3.571-.864,6.9,6.9,0,0,1,2.6.455,4.853,4.853,0,0,1,1.843,1.276A5.526,5.526,0,0,1,127,10.378a7.85,7.85,0,0,1,.369,2.48,11.318,11.318,0,0,1-.537,3.4,9.822,9.822,0,0,1-1.588,3.062,8.315,8.315,0,0,1-2.623,2.225,7.441,7.441,0,0,1-3.644.866Zm2.1-12.136a2.652,2.652,0,0,0-1.643.537,4.637,4.637,0,0,0-1.189,1.362,6.724,6.724,0,0,0-.725,1.8,7.751,7.751,0,0,0-.24,1.857,4.528,4.528,0,0,0,.453,2.214,1.735,1.735,0,0,0,1.645.793,2.64,2.64,0,0,0,1.645-.54,4.647,4.647,0,0,0,1.19-1.361,6.728,6.728,0,0,0,.725-1.8,7.867,7.867,0,0,0,.239-1.857,4.485,4.485,0,0,0-.455-2.213,1.732,1.732,0,0,0-1.645-.793Zm10.868,11.74h-4.2L131.284,7.1h4.228L131.94,22.019Zm2.039-16.732a2.6,2.6,0,0,1-1.586-.524,1.857,1.857,0,0,1-.711-1.6,2.668,2.668,0,0,1,.242-1.119,2.955,2.955,0,0,1,.639-.908,3.141,3.141,0,0,1,.922-.61A2.792,2.792,0,0,1,134.6.3a2.607,2.607,0,0,1,1.589.524,1.869,1.869,0,0,1,.71,1.6,2.688,2.688,0,0,1-.243,1.121,2.948,2.948,0,0,1-.636.908,3.119,3.119,0,0,1-.921.609A2.768,2.768,0,0,1,133.979,5.287Zm4.557,2.5c.319-.093.674-.205,1.061-.327q.645-.2,1.307-.338a15.741,15.741,0,0,1,1.615-.257,18.153,18.153,0,0,1,2.026-.1q3.32,0,4.582,1.93t.441,5.274l-1.931,8.053h-4.225l1.872-7.884c.114-.492.2-.968.27-1.433a3.4,3.4,0,0,0-.015-1.218,1.459,1.459,0,0,0-.523-.852,2.028,2.028,0,0,0-1.263-.326,8.529,8.529,0,0,0-1.672.172l-2.751,11.54H135.1l3.432-14.234Z" transform="translate(-42.572 -0.009)" fill="#4d4d4d"/>
</svg>
